<?xml version="1.0" encoding="utf-8"?>
<!-- Generator: Adobe Illustrator 25.2.0, SVG Export Plug-In . SVG Version: 6.00 Build 0)  -->
<svg version="1.1" id="Ebene_1" xmlns="http://www.w3.org/2000/svg" xmlns:xlink="http://www.w3.org/1999/xlink" x="0px" y="0px"
	 viewBox="0 0 594.9 287.26" style="enable-background:new 0 0 594.9 287.26;" xml:space="preserve">
<path d="M95.78,95.76h28.37v95.75H95.78V95.76z M110,52.09c-9.52,0-16.42,6.13-16.42,14.83c0,8.63,6.9,14.83,16.42,14.83
	s16.42-6.2,16.42-14.83C126.42,58.22,119.51,52.09,110,52.09z M205.41,159.13c-5.54,7.54-9.89,10.53-17.02,10.53
	c-8.19,0-11.89-4.31-11.89-18.09V95.76h-28.37v59.44c0,23.93,8.88,38.62,29.7,38.62c13.06,0,22.07-6.06,30.06-15.6h0.7l2.04,13.28
	h23.15V95.76h-28.37V159.13z M264.89,95.74h-2.68v21.03h2.68V95.74z M273.66,105.76c0-2.2-0.21-4.44-0.34-6.57h0.13l2.27,4.34
	l7.61,13.23h2.76V95.74h-2.54v10.88c0,2.2,0.2,4.57,0.34,6.69h-0.13l-2.27-4.36l-7.61-13.22h-2.76v21.03h2.54V105.76z M296.7,116.77
	h2.68V98h6.36v-2.26h-15.4V98h6.36V116.77z M312.65,106.86h7.97v-2.26h-7.97V98h9.45v-2.26h-12.13v21.03h12.45v-2.27h-9.77V106.86z
	 M336.54,107.56l5.37,9.2h-3.04l-5.06-8.89h-3.8v8.89h-2.68V95.74h6.59c4.28,0,7.36,1.54,7.36,5.92
	C341.28,104.93,339.39,106.86,336.54,107.56z M338.61,101.65c0-2.76-1.8-3.75-5.07-3.75h-3.53v7.8h3.53
	C336.81,105.71,338.61,104.38,338.61,101.65z M358.47,106.62c0,2.2,0.21,4.57,0.34,6.69h-0.13l-2.27-4.36l-7.61-13.22h-2.76v21.03
	h2.54v-11.01c0-2.2-0.2-4.44-0.34-6.57h0.13l2.27,4.34l7.61,13.23h2.76V95.74h-2.54V106.62z M374.58,95.74l7.11,21.03h-2.83l-2-6.41
	h-7.67l-2.02,6.41h-2.72l7.12-21.03H374.58z M375.19,105.02c-0.76-2.35-1.43-4.66-2.11-7.09h-0.13c-0.65,2.44-1.33,4.74-2.08,7.09
	l-1.01,3.2h6.33L375.19,105.02z M387.76,116.77h2.68V98h6.36v-2.26h-15.4V98h6.36V116.77z M403.7,95.74h-2.68v21.03h2.68V95.74z
	 M426.69,106.18c0,6.74-3.71,10.98-8.99,10.98c-5.28,0-8.99-4.24-8.99-10.98c0-6.74,3.71-10.82,8.99-10.82
	C422.98,95.35,426.69,99.45,426.69,106.18z M423.93,106.18c0-5.24-2.47-8.47-6.23-8.47s-6.22,3.23-6.22,8.47
	c0,5.24,2.47,8.63,6.22,8.63S423.93,111.42,423.93,106.18z M446.66,116.77V95.74h-2.54v10.88c0,2.2,0.2,4.57,0.34,6.69h-0.13
	l-2.27-4.36l-7.61-13.22h-2.76v21.03h2.54v-11.01c0-2.2-0.21-4.44-0.34-6.57h0.13l2.27,4.34l7.61,13.23H446.66z M460.23,95.74
	l7.11,21.03h-2.83l-2-6.41h-7.67l-2.02,6.41h-2.73l7.12-21.03H460.23z M460.84,105.02c-0.76-2.35-1.43-4.66-2.11-7.09h-0.13
	c-0.65,2.44-1.32,4.74-2.08,7.09l-1.01,3.2h6.33L460.84,105.02z M473.34,95.74h-2.68v21.03h11.86v-2.27h-9.18V95.74z M489.38,114.5
	v-7.65h7.97v-2.26h-7.97V98h9.45v-2.26h-12.12v21.03h12.44v-2.27H489.38z M274.68,141.91h-9.78v-8.81h-2.68v21.03h2.68v-9.89h9.78
	v9.89h2.67V133.1h-2.67V141.91z M300.34,143.54c0,6.74-3.71,10.98-8.99,10.98c-5.28,0-8.99-4.24-8.99-10.98
	c0-6.74,3.71-10.83,8.99-10.83C296.63,132.72,300.34,136.82,300.34,143.54z M297.58,143.54c0-5.24-2.47-8.47-6.23-8.47
	s-6.22,3.23-6.22,8.47s2.47,8.62,6.22,8.62S297.58,148.78,297.58,143.54z M313.38,152.17c-3.99,0-6.51-3.31-6.51-8.6
	c0-5.24,2.64-8.5,6.62-8.5c1.77,0,3.16,0.8,4.27,1.98l1.47-1.74c-1.23-1.35-3.23-2.59-5.78-2.59c-5.34,0-9.34,4.14-9.34,10.92
	c0,6.83,3.93,10.88,9.17,10.88c2.73,0,4.79-1.11,6.45-3.04l-1.47-1.68C316.91,151.29,315.39,152.17,313.38,152.17z M336.56,141.91
	h-9.78v-8.81h-2.68v21.03h2.68v-9.89h9.78v9.89h2.68V133.1h-2.68V141.91z M354.13,142.92l-3-1.3c-1.65-0.7-3.48-1.45-3.48-3.48
	c0-1.88,1.56-3.07,3.92-3.07c1.94,0,3.48,0.76,4.77,1.97l1.42-1.72c-1.48-1.53-3.7-2.61-6.19-2.61c-3.82,0-6.62,2.37-6.62,5.58
	c0,3.09,2.3,4.58,4.26,5.42l3.02,1.33c1.99,0.87,3.51,1.55,3.51,3.7c0,2.04-1.63,3.42-4.4,3.42c-2.19,0-4.29-1.03-5.8-2.61
	l-1.6,1.84c1.84,1.92,4.4,3.12,7.36,3.12c4.42,0,7.17-2.65,7.17-5.98C358.46,145.42,356.56,143.97,354.13,142.92z M371.1,152.17
	c-3.99,0-6.51-3.31-6.51-8.6c0-5.24,2.64-8.5,6.62-8.5c1.78,0,3.17,0.8,4.27,1.98l1.47-1.74c-1.23-1.35-3.23-2.59-5.79-2.59
	c-5.34,0-9.33,4.14-9.33,10.92c0,6.83,3.93,10.88,9.16,10.88c2.73,0,4.79-1.11,6.45-3.04l-1.47-1.68
	C374.63,151.29,373.1,152.17,371.1,152.17z M394.27,141.91h-9.78v-8.81h-2.68v21.03h2.68v-9.89h9.78v9.89h2.67V133.1h-2.67V141.91z
	 M415.64,145.52c0,5.05-2.2,6.64-4.99,6.64c-2.75,0-4.88-1.59-4.88-6.64V133.1h-2.68v12.35c0,6.75,3.27,9.07,7.56,9.07
	c4.29,0,7.55-2.32,7.55-9.07V133.1h-2.57V145.52z M426.99,133.1h-2.68v21.03h11.86v-2.27h-9.18V133.1z M443.04,144.22h7.97v-2.27
	h-7.97v-6.59h9.45v-2.27h-12.12v21.03h12.44v-2.27h-9.77V144.22z"/>
</svg>
