<?xml version="1.0" encoding="utf-8"?>
<svg viewBox="107.91 133.17 154.39 36.3" width="154.39" height="36.3" xmlns="http://www.w3.org/2000/svg">
  <defs>
    <style type="text/css">
	.st0{fill:#FFFFFF;}
	.st1{fill:#F4A026;}
	.st2{fill:#CA463D;}
</style>
  </defs>
  <g id="Ebene_2">
    <circle class="st0" cx="126.06" cy="151.32" r="18.15"/>
  </g>
  <g id="Ebene_1">
    <g>
      <path class="st0" d="M150.78,142.55v-9.13h2.06v3.74h0.06l2.72-3.74h2.27l-2.76,3.64l3.26,5.49h-2.25l-2.23-3.85l-1.06,1.4v2.45 H150.78z"/>
      <path class="st0" d="M162.71,142.72c-0.82,0-1.54-0.19-2.16-0.57s-1.11-0.93-1.46-1.65c-0.35-0.71-0.52-1.57-0.52-2.56 c0-1,0.17-1.85,0.52-2.54s0.84-1.23,1.46-1.6c0.62-0.37,1.34-0.55,2.16-0.55s1.54,0.18,2.16,0.55c0.62,0.37,1.11,0.9,1.46,1.6 c0.35,0.7,0.52,1.54,0.52,2.53s-0.18,1.84-0.52,2.56c-0.35,0.71-0.84,1.26-1.46,1.65C164.25,142.52,163.53,142.72,162.71,142.72z M162.71,140.94c0.63,0,1.12-0.27,1.48-0.81c0.36-0.54,0.55-1.27,0.55-2.18s-0.18-1.63-0.55-2.14c-0.36-0.51-0.86-0.77-1.48-0.77 c-0.63,0-1.12,0.26-1.48,0.77c-0.36,0.51-0.55,1.23-0.55,2.14s0.18,1.64,0.55,2.18C161.59,140.67,162.08,140.94,162.71,140.94z"/>
      <path class="st0" d="M168.58,142.55v-9.13h3.29c0.64,0,1.23,0.09,1.76,0.26c0.53,0.17,0.96,0.46,1.27,0.88 c0.32,0.41,0.48,0.98,0.48,1.71c0,0.67-0.15,1.23-0.44,1.66s-0.69,0.76-1.18,0.97l2.07,3.65h-2.31l-1.75-3.29h-1.13v3.29H168.58z M170.63,137.62h1.06c0.54,0,0.95-0.11,1.24-0.34c0.28-0.23,0.43-0.57,0.43-1.02c0-0.45-0.14-0.76-0.43-0.94 c-0.28-0.18-0.7-0.27-1.24-0.27h-1.06V137.62z"/>
      <path class="st0" d="M177.16,142.55v-9.13h3.29c0.64,0,1.23,0.09,1.76,0.26c0.53,0.17,0.96,0.46,1.27,0.88 c0.32,0.41,0.48,0.98,0.48,1.71c0,0.67-0.15,1.23-0.44,1.66s-0.69,0.76-1.18,0.97l2.07,3.65h-2.31l-1.75-3.29h-1.13v3.29H177.16z M179.22,137.62h1.06c0.54,0,0.95-0.11,1.24-0.34c0.28-0.23,0.43-0.57,0.43-1.02c0-0.45-0.14-0.76-0.43-0.94 c-0.28-0.18-0.7-0.27-1.24-0.27h-1.06V137.62z"/>
      <path class="st0" d="M185.74,142.55v-9.13h5.71v1.74h-3.65v1.83h3.11v1.72h-3.11v2.1h3.79v1.74H185.74z"/>
      <path class="st0" d="M193.41,142.55v-9.13h2.06v3.74h0.06l2.72-3.74h2.27l-2.76,3.64l3.26,5.49h-2.25l-2.23-3.85l-1.06,1.4v2.45 H193.41z"/>
      <path class="st0" d="M203.42,142.55v-7.39h-2.51v-1.74H208v1.74h-2.51v7.39H203.42z"/>
      <path class="st0" d="M213.02,142.72c-1.19,0-2.09-0.35-2.72-1.05c-0.63-0.7-0.94-1.82-0.94-3.35v-4.9h2.07v5.11 c0,0.9,0.13,1.52,0.41,1.88c0.27,0.35,0.66,0.53,1.18,0.53s0.91-0.18,1.19-0.53c0.28-0.35,0.42-0.98,0.42-1.88v-5.11h1.99v4.9 c0,1.53-0.31,2.65-0.92,3.35C215.09,142.37,214.2,142.72,213.02,142.72z"/>
      <path class="st0" d="M218.74,142.55v-9.13h3.29c0.64,0,1.23,0.09,1.76,0.26c0.53,0.17,0.96,0.46,1.27,0.88 c0.32,0.41,0.48,0.98,0.48,1.71c0,0.67-0.15,1.23-0.44,1.66s-0.69,0.76-1.18,0.97l2.07,3.65h-2.31l-1.75-3.29h-1.13v3.29H218.74z M220.8,137.62h1.06c0.54,0,0.95-0.11,1.24-0.34c0.28-0.23,0.43-0.57,0.43-1.02c0-0.45-0.14-0.76-0.43-0.94 c-0.28-0.18-0.7-0.27-1.24-0.27h-1.06V137.62z"/>
      <path class="st0" d="M151.09,156.55v-11.74h2.9l1.89,5.22c0.12,0.34,0.23,0.69,0.34,1.06c0.11,0.37,0.22,0.74,0.34,1.1h0.07 c0.12-0.36,0.23-0.73,0.33-1.1c0.1-0.37,0.21-0.73,0.33-1.06l1.85-5.22h2.88v11.74h-2.41v-4.3c0-0.38,0.02-0.81,0.06-1.29 s0.09-0.95,0.14-1.43s0.1-0.91,0.13-1.28h-0.07l-0.95,2.79l-1.67,4.48h-1.46l-1.67-4.48l-0.94-2.79h-0.07 c0.05,0.37,0.1,0.8,0.14,1.28s0.09,0.96,0.14,1.43c0.04,0.47,0.06,0.9,0.06,1.29v4.3H151.09z"/>
      <path class="st0" d="M163.31,156.55l3.67-11.74h3.19l3.67,11.74h-2.81l-0.72-2.79h-3.58l-0.72,2.79H163.31z M167.56,150.61 l-0.29,1.08h2.5l-0.27-1.08c-0.16-0.59-0.31-1.21-0.48-1.87c-0.16-0.66-0.32-1.3-0.48-1.91h-0.07c-0.14,0.62-0.29,1.26-0.44,1.92 C167.89,149.4,167.73,150.02,167.56,150.61z"/>
      <path class="st0" d="M175.12,156.55v-11.74h2.72l3.06,5.83l1.15,2.59h0.07c-0.05-0.62-0.11-1.32-0.2-2.09s-0.13-1.5-0.13-2.2 v-4.14h2.52v11.74h-2.72l-3.06-5.85l-1.15-2.56h-0.07c0.06,0.65,0.13,1.34,0.21,2.09c0.08,0.74,0.12,1.46,0.12,2.16v4.16H175.12z"/>
      <path class="st0" d="M185.6,156.55l3.67-11.74h3.19l3.67,11.74h-2.81l-0.72-2.79h-3.58l-0.72,2.79H185.6z M189.84,150.61 l-0.29,1.08h2.5l-0.27-1.08c-0.16-0.59-0.31-1.21-0.48-1.87c-0.16-0.66-0.32-1.3-0.48-1.91h-0.07c-0.14,0.62-0.29,1.26-0.44,1.92 C190.17,149.4,190.01,150.02,189.84,150.61z"/>
      <path class="st0" d="M202.41,156.76c-1.07,0-2.04-0.23-2.91-0.68c-0.87-0.46-1.56-1.13-2.07-2.03c-0.51-0.89-0.76-1.99-0.76-3.3 c0-1.3,0.26-2.4,0.78-3.32s1.22-1.62,2.08-2.11c0.86-0.49,1.82-0.73,2.86-0.73c0.85,0,1.58,0.16,2.2,0.47s1.11,0.67,1.49,1.06 l-1.39,1.69c-0.3-0.26-0.62-0.49-0.95-0.67s-0.76-0.27-1.26-0.27c-0.91,0-1.66,0.34-2.23,1.01c-0.58,0.67-0.86,1.6-0.86,2.77 c0,1.2,0.28,2.14,0.83,2.81c0.55,0.67,1.37,1.01,2.47,1.01c0.24,0,0.47-0.03,0.7-0.09c0.23-0.06,0.41-0.15,0.56-0.27v-2.02h-1.94 v-2.16h4.28v5.4c-0.41,0.4-0.95,0.73-1.63,1.01C203.97,156.63,203.22,156.76,202.41,156.76z"/>
      <path class="st0" d="M208.71,156.55v-11.74h7.34v2.23h-4.7v2.36h4v2.21h-4v2.7h4.88v2.23H208.71z"/>
      <path class="st0" d="M218.57,156.55v-11.74h2.9l1.89,5.22c0.12,0.34,0.23,0.69,0.34,1.06c0.11,0.37,0.22,0.74,0.34,1.1h0.07 c0.12-0.36,0.23-0.73,0.33-1.1c0.1-0.37,0.21-0.73,0.33-1.06l1.85-5.22h2.88v11.74h-2.41v-4.3c0-0.38,0.02-0.81,0.06-1.29 s0.09-0.95,0.14-1.43s0.1-0.91,0.13-1.28h-0.07l-0.95,2.79l-1.67,4.48h-1.46l-1.67-4.48l-0.94-2.79h-0.07 c0.05,0.37,0.1,0.8,0.14,1.28s0.09,0.96,0.14,1.43c0.04,0.47,0.06,0.9,0.06,1.29v4.3H218.57z"/>
      <path class="st0" d="M232.29,156.55v-11.74h7.34v2.23h-4.7v2.36h4v2.21h-4v2.7h4.88v2.23H232.29z"/>
      <path class="st0" d="M242.15,156.55v-11.74h2.72l3.06,5.83l1.15,2.59h0.07c-0.05-0.62-0.11-1.32-0.2-2.09s-0.13-1.5-0.13-2.2 v-4.14h2.52v11.74h-2.72l-3.06-5.85l-1.15-2.56h-0.07c0.06,0.65,0.13,1.34,0.21,2.09c0.08,0.74,0.12,1.46,0.12,2.16v4.16H242.15z"/>
      <path class="st0" d="M256.41,156.55v-9.5h-3.22v-2.23h9.11v2.23h-3.22v9.5H256.41z"/>
      <path class="st0" d="M153.57,168.72c-0.6,0-1.19-0.11-1.78-0.34c-0.59-0.22-1.12-0.55-1.59-0.98l1.18-1.41 c0.33,0.28,0.69,0.51,1.09,0.69s0.79,0.27,1.16,0.27c0.43,0,0.75-0.08,0.96-0.24c0.21-0.16,0.31-0.37,0.31-0.64 c0-0.29-0.12-0.5-0.36-0.64c-0.24-0.14-0.56-0.29-0.96-0.46l-1.19-0.5c-0.31-0.13-0.6-0.31-0.88-0.52 c-0.28-0.22-0.51-0.49-0.69-0.82c-0.18-0.33-0.27-0.71-0.27-1.15c0-0.5,0.14-0.96,0.41-1.37c0.27-0.41,0.66-0.74,1.15-0.98 c0.49-0.24,1.05-0.36,1.69-0.36c0.52,0,1.04,0.1,1.57,0.31c0.52,0.21,0.98,0.5,1.37,0.9l-1.05,1.3c-0.3-0.23-0.6-0.41-0.9-0.54 c-0.3-0.13-0.63-0.19-0.99-0.19c-0.35,0-0.64,0.07-0.85,0.22c-0.21,0.14-0.31,0.35-0.31,0.61c0,0.28,0.13,0.49,0.4,0.63 c0.27,0.14,0.6,0.29,0.99,0.45l1.18,0.48c0.55,0.22,0.99,0.53,1.32,0.92s0.49,0.91,0.49,1.55c0,0.5-0.14,0.97-0.41,1.4 s-0.66,0.77-1.18,1.04C154.92,168.58,154.3,168.72,153.57,168.72z"/>
      <path class="st0" d="M159.88,168.55v-3.25l-2.76-5.88h2.21l0.81,2.1c0.13,0.35,0.26,0.68,0.38,1c0.12,0.32,0.24,0.66,0.36,1.01 h0.06c0.13-0.35,0.26-0.69,0.39-1.01c0.13-0.32,0.26-0.66,0.38-1l0.83-2.1h2.16l-2.76,5.88v3.25H159.88z"/>
      <path class="st0" d="M168.18,168.72c-0.6,0-1.19-0.11-1.78-0.34c-0.59-0.22-1.12-0.55-1.59-0.98l1.18-1.41 c0.33,0.28,0.69,0.51,1.09,0.69s0.79,0.27,1.16,0.27c0.43,0,0.75-0.08,0.96-0.24c0.21-0.16,0.31-0.37,0.31-0.64 c0-0.29-0.12-0.5-0.36-0.64c-0.24-0.14-0.56-0.29-0.96-0.46l-1.19-0.5c-0.31-0.13-0.6-0.31-0.88-0.52 c-0.28-0.22-0.51-0.49-0.69-0.82c-0.18-0.33-0.27-0.71-0.27-1.15c0-0.5,0.14-0.96,0.41-1.37c0.27-0.41,0.66-0.74,1.15-0.98 c0.49-0.24,1.05-0.36,1.69-0.36c0.52,0,1.04,0.1,1.57,0.31c0.52,0.21,0.98,0.5,1.37,0.9l-1.05,1.3c-0.3-0.23-0.6-0.41-0.9-0.54 c-0.3-0.13-0.63-0.19-0.99-0.19c-0.35,0-0.64,0.07-0.85,0.22c-0.21,0.14-0.31,0.35-0.31,0.61c0,0.28,0.13,0.49,0.4,0.63 c0.27,0.14,0.6,0.29,0.99,0.45l1.18,0.48c0.55,0.22,0.99,0.53,1.32,0.92s0.49,0.91,0.49,1.55c0,0.5-0.14,0.97-0.41,1.4 s-0.66,0.77-1.18,1.04C169.53,168.58,168.91,168.72,168.18,168.72z"/>
      <path class="st0" d="M174.68,168.55v-7.39h-2.51v-1.74h7.08v1.74h-2.51v7.39H174.68z"/>
      <path class="st0" d="M180.69,168.55v-9.13h5.71v1.74h-3.65v1.83h3.11v1.72h-3.11v2.1h3.79v1.74H180.69z"/>
      <path class="st0" d="M188.36,168.55v-9.13h2.25l1.47,4.06c0.09,0.26,0.18,0.54,0.27,0.83c0.08,0.29,0.17,0.57,0.27,0.85h0.06 c0.09-0.28,0.18-0.56,0.26-0.85c0.08-0.29,0.17-0.56,0.26-0.83l1.44-4.06h2.24v9.13h-1.88v-3.35c0-0.3,0.02-0.63,0.05-1 c0.03-0.37,0.07-0.74,0.11-1.11c0.04-0.37,0.08-0.7,0.1-0.99h-0.06l-0.74,2.17l-1.3,3.49h-1.13l-1.3-3.49l-0.73-2.17h-0.06 c0.04,0.29,0.07,0.62,0.11,0.99c0.04,0.37,0.07,0.74,0.1,1.11c0.03,0.37,0.05,0.7,0.05,1v3.35H188.36z"/>
    </g>
    <g>
      <path class="st1" d="M130.66,145.73c1.7,0,2.39,2.07,2.39,3.77v5.18c0,3.84-3.12,6.96-6.96,6.96l0,0c-3.84,0-6.96-3.12-6.96-6.96 v-5.18c0-1.7,0.69-3.77,2.39-3.77H130.66z"/>
      <path class="st2" d="M128.8,147.45h-5.41c-0.98,0-1.77-0.79-1.77-1.77l0,0c0-2.06,1.67-3.74,3.74-3.74h1.48 c2.06,0,3.74,1.67,3.74,3.74l0,0C130.57,146.65,129.78,147.45,128.8,147.45z"/>
      <path d="M138.6,152.12h-4.89v-2.62c0-0.05,0.02-0.11,0.02-0.16c2.49-0.26,3.91-1.89,3.91-4.58v-0.62c0-0.38-0.31-0.69-0.69-0.69 c-0.38,0-0.69,0.31-0.69,0.69v0.62c0,1.98-0.88,3.04-2.68,3.21c-0.31-1.4-1.08-2.6-2.35-2.88c-0.19-1.47-1.11-2.72-2.38-3.37 c0.53-0.54,0.87-1.29,0.87-2.1v-0.61c0-0.38-0.31-0.69-0.69-0.69c-0.38,0-0.69,0.31-0.69,0.69v0.61c0,0.9-0.75,1.61-1.64,1.61 h-1.19c-0.9,0-1.64-0.71-1.64-1.61v-0.61c0-0.38-0.31-0.69-0.69-0.69s-0.69,0.31-0.69,0.69v0.61c0,0.82,0.34,1.56,0.87,2.1 c-1.28,0.65-2.19,1.9-2.39,3.37c-1.28,0.28-2.04,1.48-2.35,2.88c-1.85-0.15-2.75-1.21-2.75-3.22v-0.62c0-0.38-0.31-0.69-0.69-0.69 c-0.38,0-0.69,0.31-0.69,0.69v0.62c0,2.71,1.42,4.35,3.95,4.58c0,0.05-0.02,0.1-0.02,0.15v2.62h-4.89c-0.38,0-0.69,0.31-0.69,0.69 c0,0.38,0.31,0.69,0.69,0.69h4.89v1.19c0,0.55,0.08,1.08,0.19,1.6c-2.63,0.18-4.11,1.83-4.11,4.6v0.62c0,0.38,0.31,0.69,0.69,0.69 s0.69-0.31,0.69-0.69v-0.62c0-2.16,1.04-3.22,3.18-3.24c1.16,2.75,3.88,4.68,7.05,4.68c3.17,0,5.89-1.93,7.05-4.68 c2.09,0.04,3.11,1.1,3.11,3.24v0.62c0,0.38,0.31,0.69,0.69,0.69c0.38,0,0.69-0.31,0.69-0.69v-0.62c0-2.74-1.49-4.39-4.08-4.59 c0.11-0.52,0.15-1.06,0.15-1.61v-1.19h4.89c0.38,0,0.69-0.31,0.69-0.69C139.29,152.42,138.98,152.12,138.6,152.12z M125.35,142.61 h0.15h1.19h0.15c1.68,0,3.05,1.37,3.05,3.05c0,0.6-0.49,1.08-1.08,1.08h-5.41c-0.6,0-1.08-0.49-1.08-1.08 C122.31,143.98,123.67,142.61,125.35,142.61z M119.79,154.68v-5.18c0-1.07,0.36-2.61,1.26-3c0.34,0.95,1.27,1.62,2.33,1.62h1.98 v12.79C122.25,160.55,119.79,157.89,119.79,154.68z M126.75,160.92v-12.8h2.05c1.07,0,1.96-0.67,2.3-1.62 c0.91,0.39,1.23,1.92,1.23,3v5.18C132.33,157.92,129.9,160.59,126.75,160.92z"/>
    </g>
  </g>
</svg>